<mxfile host="app.diagrams.net" modified="2024-06-26T12:56:24.613Z" agent="Mozilla/5.0 (X11; Linux x86_64) AppleWebKit/537.36 (KHTML, like Gecko) Chrome/126.0.0.0 Safari/537.36" etag="hN_wQxPQB5UW8735VvBI" version="24.6.3" type="github">
  <diagram name="Page-1" id="JfQwr6mKDJ7Q5U0qXkKd">
    <mxGraphModel dx="2170" dy="793" grid="1" gridSize="10" guides="1" tooltips="1" connect="1" arrows="1" fold="1" page="1" pageScale="1" pageWidth="827" pageHeight="1169" math="0" shadow="0">
      <root>
        <mxCell id="0" />
        <mxCell id="1" parent="0" />
        <mxCell id="2" value="Customer" style="whiteSpace=wrap;strokeWidth=2;" parent="1" vertex="1">
          <mxGeometry x="60" y="20" width="85" height="32" as="geometry" />
        </mxCell>
        <mxCell id="3" value="Signup" style="rounded=1;absoluteArcSize=1;arcSize=14;whiteSpace=wrap;strokeWidth=2;" parent="1" vertex="1">
          <mxGeometry y="99" width="65" height="32" as="geometry" />
        </mxCell>
        <mxCell id="4" value="Login" style="rounded=1;absoluteArcSize=1;arcSize=14;whiteSpace=wrap;strokeWidth=2;" parent="1" vertex="1">
          <mxGeometry x="-6" y="180" width="54" height="32" as="geometry" />
        </mxCell>
        <mxCell id="5" value="View Product" style="rounded=1;absoluteArcSize=1;arcSize=14;whiteSpace=wrap;strokeWidth=2;" parent="1" vertex="1">
          <mxGeometry x="26" y="282" width="110" height="32" as="geometry" />
        </mxCell>
        <mxCell id="6" value="Order Product" style="rounded=1;absoluteArcSize=1;arcSize=14;whiteSpace=wrap;strokeWidth=2;" parent="1" vertex="1">
          <mxGeometry x="120" y="440" width="116" height="32" as="geometry" />
        </mxCell>
        <mxCell id="7" value="Vendor" style="whiteSpace=wrap;strokeWidth=2;" parent="1" vertex="1">
          <mxGeometry x="210" y="20" width="66" height="32" as="geometry" />
        </mxCell>
        <mxCell id="8" value="Signup" style="rounded=1;absoluteArcSize=1;arcSize=14;whiteSpace=wrap;strokeWidth=2;" parent="1" vertex="1">
          <mxGeometry x="220" y="120" width="65" height="32" as="geometry" />
        </mxCell>
        <mxCell id="9" value="Login" style="rounded=1;absoluteArcSize=1;arcSize=14;whiteSpace=wrap;strokeWidth=2;" parent="1" vertex="1">
          <mxGeometry x="360" y="250" width="54" height="32" as="geometry" />
        </mxCell>
        <mxCell id="10" value="Signs Up" style="curved=1;startArrow=none;endArrow=block;exitX=0.28;exitY=1;entryX=0.5;entryY=0;" parent="1" source="2" target="3" edge="1">
          <mxGeometry relative="1" as="geometry">
            <Array as="points">
              <mxPoint x="33" y="66" />
            </Array>
          </mxGeometry>
        </mxCell>
        <mxCell id="11" value="" style="curved=1;startArrow=none;endArrow=block;exitX=0.5;exitY=1;entryX=0.5;entryY=0;" parent="1" source="3" target="4" edge="1">
          <mxGeometry relative="1" as="geometry">
            <Array as="points" />
          </mxGeometry>
        </mxCell>
        <mxCell id="12" value="" style="curved=1;startArrow=none;endArrow=block;exitX=0.5;exitY=1;entryX=0.42;entryY=0;" parent="1" source="4" target="5" edge="1">
          <mxGeometry relative="1" as="geometry">
            <Array as="points">
              <mxPoint x="33" y="255" />
            </Array>
          </mxGeometry>
        </mxCell>
        <mxCell id="14" value="Views Product" style="curved=1;startArrow=none;endArrow=block;exitX=0.55;exitY=1;entryX=0.67;entryY=0;" parent="1" source="2" target="5" edge="1">
          <mxGeometry relative="1" as="geometry">
            <Array as="points">
              <mxPoint x="104" y="66" />
              <mxPoint x="104" y="255" />
            </Array>
          </mxGeometry>
        </mxCell>
        <mxCell id="17" value="" style="curved=1;startArrow=none;endArrow=block;exitX=0.49;exitY=1;entryX=0.5;entryY=0;" parent="1" source="8" target="9" edge="1">
          <mxGeometry relative="1" as="geometry">
            <Array as="points" />
          </mxGeometry>
        </mxCell>
        <mxCell id="M0-Wf22BtbSEkpvqYB6u-18" value="Orders Product" style="curved=1;startArrow=none;endArrow=block;exitX=0.5;exitY=1;exitDx=0;exitDy=0;" edge="1" parent="1" source="5" target="6">
          <mxGeometry relative="1" as="geometry">
            <Array as="points" />
            <mxPoint x="133" y="281" as="sourcePoint" />
            <mxPoint x="143" y="461" as="targetPoint" />
          </mxGeometry>
        </mxCell>
        <mxCell id="M0-Wf22BtbSEkpvqYB6u-19" value="edit profile" style="rounded=1;absoluteArcSize=1;arcSize=14;whiteSpace=wrap;strokeWidth=2;" vertex="1" parent="1">
          <mxGeometry x="-90" y="430" width="116" height="32" as="geometry" />
        </mxCell>
        <mxCell id="M0-Wf22BtbSEkpvqYB6u-20" value="edit profile" style="curved=1;startArrow=none;endArrow=block;" edge="1" parent="1" source="5" target="M0-Wf22BtbSEkpvqYB6u-19">
          <mxGeometry relative="1" as="geometry">
            <Array as="points" />
            <mxPoint x="10" y="340" as="sourcePoint" />
            <mxPoint x="10" y="520" as="targetPoint" />
          </mxGeometry>
        </mxCell>
        <mxCell id="M0-Wf22BtbSEkpvqYB6u-21" value="product details" style="rounded=1;absoluteArcSize=1;arcSize=14;whiteSpace=wrap;strokeWidth=2;" vertex="1" parent="1">
          <mxGeometry x="210" y="320" width="116" height="32" as="geometry" />
        </mxCell>
        <mxCell id="M0-Wf22BtbSEkpvqYB6u-22" value="" style="curved=1;startArrow=none;endArrow=block;exitX=0.5;exitY=1;entryX=0.5;entryY=0;entryDx=0;entryDy=0;exitDx=0;exitDy=0;" edge="1" parent="1" source="7" target="8">
          <mxGeometry relative="1" as="geometry">
            <Array as="points" />
            <mxPoint x="236" y="60" as="sourcePoint" />
            <mxPoint x="314" y="229" as="targetPoint" />
          </mxGeometry>
        </mxCell>
        <mxCell id="M0-Wf22BtbSEkpvqYB6u-23" value="Supplies Product" style="curved=1;startArrow=none;endArrow=block;exitX=0;exitY=0.5;entryX=1;entryY=0.75;entryDx=0;entryDy=0;exitDx=0;exitDy=0;" edge="1" parent="1" source="M0-Wf22BtbSEkpvqYB6u-21" target="5">
          <mxGeometry relative="1" as="geometry">
            <Array as="points">
              <mxPoint x="200" y="310" />
            </Array>
            <mxPoint x="199.76999999999995" y="340" as="sourcePoint" />
            <mxPoint x="194.23" y="446" as="targetPoint" />
          </mxGeometry>
        </mxCell>
        <mxCell id="M0-Wf22BtbSEkpvqYB6u-24" value="upload product" style="curved=1;startArrow=none;endArrow=block;exitX=0.5;exitY=1;exitDx=0;exitDy=0;entryX=0.5;entryY=0;entryDx=0;entryDy=0;" edge="1" parent="1" source="9" target="M0-Wf22BtbSEkpvqYB6u-21">
          <mxGeometry relative="1" as="geometry">
            <Array as="points" />
            <mxPoint x="320" y="170" as="sourcePoint" />
            <mxPoint x="432" y="338" as="targetPoint" />
          </mxGeometry>
        </mxCell>
        <mxCell id="M0-Wf22BtbSEkpvqYB6u-26" value="Manage order" style="rounded=1;absoluteArcSize=1;arcSize=14;whiteSpace=wrap;strokeWidth=2;" vertex="1" parent="1">
          <mxGeometry x="329" y="472" width="116" height="32" as="geometry" />
        </mxCell>
        <mxCell id="M0-Wf22BtbSEkpvqYB6u-27" value="update order" style="curved=1;startArrow=none;endArrow=block;exitX=0.5;exitY=1;exitDx=0;exitDy=0;" edge="1" parent="1" source="9" target="M0-Wf22BtbSEkpvqYB6u-26">
          <mxGeometry relative="1" as="geometry">
            <Array as="points" />
            <mxPoint x="397" y="292" as="sourcePoint" />
            <mxPoint x="278" y="330" as="targetPoint" />
          </mxGeometry>
        </mxCell>
        <mxCell id="M0-Wf22BtbSEkpvqYB6u-28" value="update order" style="curved=1;startArrow=none;endArrow=block;exitX=1;exitY=0.75;exitDx=0;exitDy=0;entryX=0;entryY=0.5;entryDx=0;entryDy=0;" edge="1" parent="1" source="6" target="M0-Wf22BtbSEkpvqYB6u-26">
          <mxGeometry relative="1" as="geometry">
            <Array as="points" />
            <mxPoint x="189.5" y="493" as="sourcePoint" />
            <mxPoint x="296.5" y="601" as="targetPoint" />
          </mxGeometry>
        </mxCell>
      </root>
    </mxGraphModel>
  </diagram>
</mxfile>
